<svg xmlns="http://www.w3.org/2000/svg" viewBox="0 0 900 900" role="img" aria-labelledby="title desc">
  <title id="title">Correct document example</title>
  <desc id="desc">A green approved sample showing a clear full document upload.</desc>
  <linearGradient id="success" x1="0" x2="1" y1="0" y2="1">
    <stop stop-color="#ecfdf5"/><stop offset="1" stop-color="#f8fafc"/>
  </linearGradient>
  <rect width="900" height="900" rx="36" fill="#fff"/>
  <rect x="26" y="26" width="848" height="848" rx="28" fill="url(#success)" stroke="#86efac" stroke-width="2"/>
  <g transform="translate(68 64)">
    <circle cx="48" cy="48" r="32" fill="#10b981"/>
    <path d="M32 49l13 13 27-31" stroke="#fff" stroke-width="8" stroke-linecap="round" stroke-linejoin="round" fill="none"/>
    <text x="118" y="63" font-family="Inter,Arial,sans-serif" font-size="42" font-weight="800" fill="#059669">Correct</text>
  </g>
  <rect x="92" y="188" width="716" height="626" rx="24" fill="#fff" stroke="#d1d5db"/>
  <rect x="178" y="238" width="544" height="518" rx="10" fill="#f8fafc" stroke="#64748b" stroke-width="3"/>
  <text x="450" y="306" text-anchor="middle" font-family="Arial,sans-serif" font-size="30" font-weight="800" fill="#111827">SCHOOL DOCUMENT</text>
  <g stroke="#0f172a" stroke-width="3">
    <path d="M224 366h452M224 430h452M224 494h452M224 558h452M224 622h452M224 686h452"/>
    <path d="M360 366v320M540 430v256"/>
  </g>
  <g fill="#111827" font-family="Arial,sans-serif" font-size="22">
    <text x="244" y="410">Student Name</text><text x="388" y="410" font-weight="700">Sample Name</text>
    <text x="244" y="474">Grade</text><text x="388" y="474" font-weight="700">Grade 1</text>
    <text x="244" y="538">School Year</text><text x="388" y="538" font-weight="700">2026-2027</text>
    <text x="244" y="602">Remarks</text><text x="388" y="602" font-weight="700">Clear and complete</text>
  </g>
</svg>
